Title                            : The Social Network
Year                             : 2010
Genre                            : Biography | Drama | History
iMDB URL                         : http://www.imdb.com/title/tt1285016/

Complete name                    : The.Social.Network.2010.BRRIP.720P.H264-ZEKTORM.mp4
Format                           : MPEG-4
Format profile                   : Base Media
Codec ID                         : isom
File size                        : 2.54 GiB
Duration                         : 2h 0mn
Overall bit rate                 : 3018 Kbps
Subtitles                        : English (Format: srt)

Video
ID                               : 1
Format                           : AVC
Format/Info                      : Advanced Video Codec
Format profile                   : High@L4.0
Format settings, CABAC           : Yes
Format settings, ReFrames        : 5 frames
Codec ID                         : avc1
Codec ID/Info                    : Advanced Video Coding
Duration                         : 2h 0mn
Bit rate mode                    : Variable
Bit rate                         : 2592 Kbps
Width                            : 1280 pixels
Height                           : 528 pixels
Display aspect ratio             : 2.424
Frame rate mode                  : Constant
Frame rate                       : 23.976 fps
Resolution                       : 24 bits
Colorimetry                      : 4:2:0
Scan type                        : Progressive
Bits/(Pixel*Frame)               : 0.160
Stream size                      : 2.18 GiB (86%)
Title                            : Video
Writing library                  : x264

Audio
ID                               : 2
Format                           : AAC
Format/Info                      : Advanced Audio Codec
Format version                   : Version 4
Format profile                   : LC
Format settings, SBR             : No
Codec ID                         : 40
Duration                         : 2h 0mn
Bit rate mode                    : Variable
Bit rate                         : 422 Kbps
Maximum bit rate                 : 508 Kbps
Channel(s)                       : 6 channels
Channel positions                : Front: L C R, Rear: L R, LFE
Sampling rate                    : 48.0 KHz
Resolution                       : 16 bits
Stream size                      : 364 MiB (14%)
Language                         : English


Screenshots:
 
http://img513.imageshack.us/img513/3967/snapsn1.png
 
http://img263.imageshack.us/img263/6964/snapsn2.png
 
http://img202.imageshack.us/img202/6395/snapsn3.png
 
http://img828.imageshack.us/img828/858/snapsn4.png